<mxfile host="app.diagrams.net" agent="Mozilla/5.0 (Windows NT 10.0; Win64; x64; rv:138.0) Gecko/20100101 Firefox/138.0" version="27.0.5">
  <diagram name="P치gina-1" id="7f4B3Y-akTW4V8ARh-Hn">
    <mxGraphModel dx="1213" dy="765" grid="1" gridSize="10" guides="1" tooltips="1" connect="1" arrows="1" fold="1" page="1" pageScale="1" pageWidth="1200" pageHeight="1600" math="0" shadow="0">
      <root>
        <mxCell id="0" />
        <mxCell id="1" parent="0" />
        <mxCell id="LcZc_sEwQm5LV-d36QQi-3" style="edgeStyle=orthogonalEdgeStyle;rounded=0;orthogonalLoop=1;jettySize=auto;html=1;entryX=0.5;entryY=0;entryDx=0;entryDy=0;" edge="1" parent="1" source="LcZc_sEwQm5LV-d36QQi-1" target="LcZc_sEwQm5LV-d36QQi-2">
          <mxGeometry relative="1" as="geometry" />
        </mxCell>
        <mxCell id="LcZc_sEwQm5LV-d36QQi-1" value="Main" style="strokeWidth=2;html=1;shape=mxgraph.flowchart.start_1;whiteSpace=wrap;" vertex="1" parent="1">
          <mxGeometry x="350" y="40" width="100" height="60" as="geometry" />
        </mxCell>
        <mxCell id="LcZc_sEwQm5LV-d36QQi-2" value="&quot;Ingrese la cantidad de productos(m치ximo 5)&quot;" style="shape=parallelogram;html=1;strokeWidth=2;perimeter=parallelogramPerimeter;whiteSpace=wrap;rounded=1;arcSize=12;size=0.23;" vertex="1" parent="1">
          <mxGeometry x="292.5" y="170" width="215" height="60" as="geometry" />
        </mxCell>
        <mxCell id="LcZc_sEwQm5LV-d36QQi-5" style="edgeStyle=orthogonalEdgeStyle;rounded=0;orthogonalLoop=1;jettySize=auto;html=1;entryX=1;entryY=0.5;entryDx=0;entryDy=0;exitX=1;exitY=0.5;exitDx=0;exitDy=0;exitPerimeter=0;" edge="1" parent="1" source="LcZc_sEwQm5LV-d36QQi-4" target="LcZc_sEwQm5LV-d36QQi-2">
          <mxGeometry relative="1" as="geometry">
            <mxPoint x="600" y="180" as="targetPoint" />
            <mxPoint x="510" y="280" as="sourcePoint" />
            <Array as="points">
              <mxPoint x="601" y="320" />
              <mxPoint x="601" y="200" />
            </Array>
          </mxGeometry>
        </mxCell>
        <mxCell id="LcZc_sEwQm5LV-d36QQi-6" value="False" style="edgeLabel;html=1;align=center;verticalAlign=middle;resizable=0;points=[];" vertex="1" connectable="0" parent="LcZc_sEwQm5LV-d36QQi-5">
          <mxGeometry x="0.145" relative="1" as="geometry">
            <mxPoint x="-1" y="12" as="offset" />
          </mxGeometry>
        </mxCell>
        <mxCell id="LcZc_sEwQm5LV-d36QQi-9" style="edgeStyle=orthogonalEdgeStyle;rounded=0;orthogonalLoop=1;jettySize=auto;html=1;exitX=0.5;exitY=1;exitDx=0;exitDy=0;exitPerimeter=0;entryX=0.5;entryY=0;entryDx=0;entryDy=0;" edge="1" parent="1" source="LcZc_sEwQm5LV-d36QQi-4" target="LcZc_sEwQm5LV-d36QQi-8">
          <mxGeometry relative="1" as="geometry" />
        </mxCell>
        <mxCell id="LcZc_sEwQm5LV-d36QQi-4" value="Cantidad&amp;lt;=5" style="strokeWidth=2;html=1;shape=mxgraph.flowchart.decision;whiteSpace=wrap;" vertex="1" parent="1">
          <mxGeometry x="350" y="270" width="100" height="100" as="geometry" />
        </mxCell>
        <mxCell id="LcZc_sEwQm5LV-d36QQi-7" style="edgeStyle=orthogonalEdgeStyle;rounded=0;orthogonalLoop=1;jettySize=auto;html=1;exitX=0.5;exitY=1;exitDx=0;exitDy=0;entryX=0.5;entryY=0;entryDx=0;entryDy=0;entryPerimeter=0;" edge="1" parent="1" source="LcZc_sEwQm5LV-d36QQi-2" target="LcZc_sEwQm5LV-d36QQi-4">
          <mxGeometry relative="1" as="geometry" />
        </mxCell>
        <mxCell id="LcZc_sEwQm5LV-d36QQi-11" style="edgeStyle=orthogonalEdgeStyle;rounded=0;orthogonalLoop=1;jettySize=auto;html=1;" edge="1" parent="1" source="LcZc_sEwQm5LV-d36QQi-8" target="LcZc_sEwQm5LV-d36QQi-10">
          <mxGeometry relative="1" as="geometry" />
        </mxCell>
        <mxCell id="LcZc_sEwQm5LV-d36QQi-8" value="&quot;Ingrese el tiempo total disponible(horas): &quot;" style="shape=parallelogram;html=1;strokeWidth=2;perimeter=parallelogramPerimeter;whiteSpace=wrap;rounded=1;arcSize=12;size=0.23;" vertex="1" parent="1">
          <mxGeometry x="295" y="420" width="210" height="60" as="geometry" />
        </mxCell>
        <mxCell id="LcZc_sEwQm5LV-d36QQi-32" style="edgeStyle=orthogonalEdgeStyle;rounded=0;orthogonalLoop=1;jettySize=auto;html=1;exitX=0.5;exitY=1;exitDx=0;exitDy=0;entryX=0.5;entryY=0;entryDx=0;entryDy=0;" edge="1" parent="1" source="LcZc_sEwQm5LV-d36QQi-10" target="LcZc_sEwQm5LV-d36QQi-31">
          <mxGeometry relative="1" as="geometry" />
        </mxCell>
        <mxCell id="LcZc_sEwQm5LV-d36QQi-10" value="&quot;Ingrese los recursos totales disponibles:&quot;" style="shape=parallelogram;html=1;strokeWidth=2;perimeter=parallelogramPerimeter;whiteSpace=wrap;rounded=1;arcSize=12;size=0.23;" vertex="1" parent="1">
          <mxGeometry x="235" y="530" width="330" height="60" as="geometry" />
        </mxCell>
        <mxCell id="LcZc_sEwQm5LV-d36QQi-28" style="edgeStyle=orthogonalEdgeStyle;rounded=0;orthogonalLoop=1;jettySize=auto;html=1;exitX=0.5;exitY=0;exitDx=0;exitDy=0;" edge="1" parent="1" source="LcZc_sEwQm5LV-d36QQi-12">
          <mxGeometry relative="1" as="geometry">
            <mxPoint x="830" y="410" as="targetPoint" />
            <Array as="points">
              <mxPoint x="1070" y="410" />
            </Array>
          </mxGeometry>
        </mxCell>
        <mxCell id="LcZc_sEwQm5LV-d36QQi-12" value="for(i=0;i&amp;lt;Cantidad;i++)" style="rounded=1;whiteSpace=wrap;html=1;absoluteArcSize=1;arcSize=14;strokeWidth=2;" vertex="1" parent="1">
          <mxGeometry x="1000" y="530" width="140" height="100" as="geometry" />
        </mxCell>
        <mxCell id="LcZc_sEwQm5LV-d36QQi-23" style="edgeStyle=orthogonalEdgeStyle;rounded=0;orthogonalLoop=1;jettySize=auto;html=1;exitX=0.5;exitY=1;exitDx=0;exitDy=0;entryX=0.5;entryY=0;entryDx=0;entryDy=0;" edge="1" parent="1" source="LcZc_sEwQm5LV-d36QQi-14" target="LcZc_sEwQm5LV-d36QQi-19">
          <mxGeometry relative="1" as="geometry" />
        </mxCell>
        <mxCell id="LcZc_sEwQm5LV-d36QQi-14" value="Nombre de Producto i: " style="shape=parallelogram;html=1;strokeWidth=2;perimeter=parallelogramPerimeter;whiteSpace=wrap;rounded=1;arcSize=12;size=0.23;" vertex="1" parent="1">
          <mxGeometry x="730" y="440" width="200" height="60" as="geometry" />
        </mxCell>
        <mxCell id="LcZc_sEwQm5LV-d36QQi-24" style="edgeStyle=orthogonalEdgeStyle;rounded=0;orthogonalLoop=1;jettySize=auto;html=1;exitX=0.5;exitY=1;exitDx=0;exitDy=0;entryX=0.5;entryY=0;entryDx=0;entryDy=0;" edge="1" parent="1" source="LcZc_sEwQm5LV-d36QQi-19" target="LcZc_sEwQm5LV-d36QQi-20">
          <mxGeometry relative="1" as="geometry" />
        </mxCell>
        <mxCell id="LcZc_sEwQm5LV-d36QQi-19" value="Precio de Producto i: " style="shape=parallelogram;html=1;strokeWidth=2;perimeter=parallelogramPerimeter;whiteSpace=wrap;rounded=1;arcSize=12;size=0.23;" vertex="1" parent="1">
          <mxGeometry x="730" y="520" width="200" height="60" as="geometry" />
        </mxCell>
        <mxCell id="LcZc_sEwQm5LV-d36QQi-25" style="edgeStyle=orthogonalEdgeStyle;rounded=0;orthogonalLoop=1;jettySize=auto;html=1;exitX=0.5;exitY=1;exitDx=0;exitDy=0;entryX=0.5;entryY=0;entryDx=0;entryDy=0;" edge="1" parent="1" source="LcZc_sEwQm5LV-d36QQi-20" target="LcZc_sEwQm5LV-d36QQi-21">
          <mxGeometry relative="1" as="geometry" />
        </mxCell>
        <mxCell id="LcZc_sEwQm5LV-d36QQi-20" value="C칩digo de Producto i: " style="shape=parallelogram;html=1;strokeWidth=2;perimeter=parallelogramPerimeter;whiteSpace=wrap;rounded=1;arcSize=12;size=0.23;" vertex="1" parent="1">
          <mxGeometry x="730" y="600" width="200" height="60" as="geometry" />
        </mxCell>
        <mxCell id="LcZc_sEwQm5LV-d36QQi-27" style="edgeStyle=orthogonalEdgeStyle;rounded=0;orthogonalLoop=1;jettySize=auto;html=1;exitX=0.5;exitY=1;exitDx=0;exitDy=0;entryX=0.5;entryY=0;entryDx=0;entryDy=0;" edge="1" parent="1" source="LcZc_sEwQm5LV-d36QQi-21" target="LcZc_sEwQm5LV-d36QQi-22">
          <mxGeometry relative="1" as="geometry" />
        </mxCell>
        <mxCell id="LcZc_sEwQm5LV-d36QQi-21" value="Cantidad demandada de Producto i: " style="shape=parallelogram;html=1;strokeWidth=2;perimeter=parallelogramPerimeter;whiteSpace=wrap;rounded=1;arcSize=12;size=0.23;" vertex="1" parent="1">
          <mxGeometry x="690" y="680" width="280" height="60" as="geometry" />
        </mxCell>
        <mxCell id="LcZc_sEwQm5LV-d36QQi-30" style="edgeStyle=orthogonalEdgeStyle;rounded=0;orthogonalLoop=1;jettySize=auto;html=1;exitX=0.5;exitY=1;exitDx=0;exitDy=0;entryX=0.5;entryY=1;entryDx=0;entryDy=0;" edge="1" parent="1" source="LcZc_sEwQm5LV-d36QQi-22" target="LcZc_sEwQm5LV-d36QQi-12">
          <mxGeometry relative="1" as="geometry">
            <Array as="points">
              <mxPoint x="830" y="860" />
              <mxPoint x="1070" y="860" />
            </Array>
          </mxGeometry>
        </mxCell>
        <mxCell id="LcZc_sEwQm5LV-d36QQi-22" value="Tiempo por unidad de Producto i: " style="shape=parallelogram;html=1;strokeWidth=2;perimeter=parallelogramPerimeter;whiteSpace=wrap;rounded=1;arcSize=12;size=0.23;" vertex="1" parent="1">
          <mxGeometry x="695" y="760" width="270" height="60" as="geometry" />
        </mxCell>
        <mxCell id="LcZc_sEwQm5LV-d36QQi-31" value="Funci칩n IngresarProductos (productos,Cantidad)" style="rounded=1;whiteSpace=wrap;html=1;absoluteArcSize=1;arcSize=14;strokeWidth=2;" vertex="1" parent="1">
          <mxGeometry x="315" y="630" width="170" height="100" as="geometry" />
        </mxCell>
        <mxCell id="LcZc_sEwQm5LV-d36QQi-34" style="edgeStyle=orthogonalEdgeStyle;rounded=0;orthogonalLoop=1;jettySize=auto;html=1;entryX=0.5;entryY=0;entryDx=0;entryDy=0;" edge="1" parent="1" source="LcZc_sEwQm5LV-d36QQi-33" target="LcZc_sEwQm5LV-d36QQi-14">
          <mxGeometry relative="1" as="geometry" />
        </mxCell>
        <mxCell id="LcZc_sEwQm5LV-d36QQi-33" value="IngresarProductos" style="strokeWidth=2;html=1;shape=mxgraph.flowchart.decision;whiteSpace=wrap;" vertex="1" parent="1">
          <mxGeometry x="760" y="255" width="140" height="130" as="geometry" />
        </mxCell>
      </root>
    </mxGraphModel>
  </diagram>
</mxfile>
